<?xml version="1.0" encoding="utf-8"?>
<svg width="377.95276px" height="377.95276px" viewBox="0 0 377.95276 377.95276" version="1.1" xmlns:xlink="http://www.w3.org/1999/xlink" xmlns="http://www.w3.org/2000/svg">
  <defs>
    <path d="M377.953 0L377.953 0L377.953 377.953L0 377.953L0 0L377.953 0Z" id="path_1" />
    <path d="M107 0L107 0L107 107L0 107L0 0L107 0Z" id="path_2" />
    <clipPath id="clip_1">
      <use xlink:href="#path_1" clip-rule="evenodd" fill-rule="evenodd" />
    </clipPath>
    <clipPath id="clip_2">
      <use xlink:href="#path_2" clip-rule="evenodd" fill-rule="evenodd" />
    </clipPath>
  </defs>
  <g id="icon">
    <path d="M377.953 0L377.953 0L377.953 377.953L0 377.953L0 0L377.953 0Z" id="icon" fill="none" stroke="none" />
    <path d="M333.415 223.683C314.491 223.683 299.132 208.324 299.132 189.4C299.132 170.476 314.491 155.118 333.415 155.118C352.338 155.118 367.697 170.888 367.697 189.4C367.697 208.324 352.338 223.683 333.415 223.683L333.415 223.683ZM315.691 112.328C302.309 125.709 280.589 125.709 267.208 112.328C253.827 98.947 253.827 77.2267 267.208 63.8455C280.589 50.4642 302.6 50.7551 315.691 63.8455C329.072 77.2267 329.072 98.947 315.691 112.328L315.691 112.328ZM224.418 46.1215C224.418 65.0455 209.06 80.404 190.136 80.404C171.212 80.404 155.853 65.0455 155.853 46.1215C155.853 27.1976 171.623 11.8391 190.136 11.8391C209.06 11.8391 224.418 27.1976 224.418 46.1215L224.418 46.1215ZM113.064 63.8455C126.445 77.2267 126.445 98.947 113.064 112.328C99.6829 125.71 77.9626 125.71 64.5814 112.328C51.2001 98.947 51.491 76.9358 64.5814 63.8455C77.9626 50.4642 99.6829 50.4642 113.064 63.8455L113.064 63.8455ZM46.8574 155.118C65.7814 155.118 81.1399 170.476 81.1399 189.4C81.1399 208.324 65.7814 223.683 46.8574 223.683C27.9335 223.683 12.5749 207.913 12.5749 189.4C12.5749 170.476 27.9335 155.118 46.8574 155.118L46.8574 155.118ZM64.5814 266.472C77.9626 253.091 99.6829 253.091 113.064 266.472C126.445 279.853 126.445 301.573 113.064 314.955C99.6829 328.336 77.6717 328.045 64.5814 314.955C51.2001 301.573 51.2001 279.853 64.5814 266.472L64.5814 266.472ZM155.853 332.679C155.853 313.755 171.212 298.396 190.136 298.396C209.06 298.396 224.418 313.755 224.418 332.679C224.418 351.603 208.649 366.961 190.136 366.961C171.212 366.961 155.853 351.603 155.853 332.679L155.853 332.679ZM267.208 314.955C253.827 301.573 253.827 279.853 267.208 266.472C280.589 253.091 302.309 253.091 315.691 266.472C329.072 279.853 328.781 301.864 315.691 314.955C302.309 328.336 280.589 328.336 267.208 314.955L267.208 314.955Z" id="layer1" fill="#8EEF97" fill-rule="evenodd" stroke="none" clip-path="url(#clip_1)" />
    <g id="Plus" clip-path="url(#clip_1)">
      <path d="M107 0L107 0L107 107L0 107L0 0L107 0Z" id="Plus" fill="none" stroke="none" transform="translate(137 136)" />
      <path d="M49.0417 22.2917L49.0417 49.0417L22.2917 49.0417L22.2917 57.9583L49.0417 57.9583L49.0417 84.7083L57.9583 84.7083L57.9583 57.9583L84.7083 57.9583L84.7083 49.0417L57.9583 49.0417L57.9583 22.2917L49.0417 22.2917L49.0417 22.2917Z" id="Shape" fill="#8EEF97" stroke="none" clip-path="url(#clip_2)" transform="translate(137 136)" />
    </g>
  </g>
</svg>